# xmcd
#
# Track frame offsets: 
#        150
#        17485
#        30847
#        51727
#        66932
#        82182
#        97937
#        112535
#        125802
#        137467
#        155752
#        174907
#
# Disc length: 2486 seconds
#
# Revision: 2
# Processed by: cddbd v1.5.2PL0 Copyright (c) Steve Scherf et al.
# Submitted via: ExactAudioCopyFreeDBPlugin 1.0
#
DISCID=9409b40c
DTITLE=Swiss Blues Authority - Polo Hofer - Kind Of Blue
DYEAR=1900
DGENRE=Blues
TTITLE0=Tupelo Honey
TTITLE1=Blind Side
TTITLE2=Bring It On Home
TTITLE3=Why Get Up
TTITLE4=Leap Of Faith
TTITLE5=It Takes A Lot To Laugh
TTITLE6=Under Suspicion
TTITLE7=Shaky Ground
TTITLE8=Scuttle Buttin
TTITLE9=Beast Of Burden
TTITLE10=I An't Waiting No More
TTITLE11=Instrumental In C
EXTD=ID3G: 0
EXTT0=
EXTT1=
EXTT2=
EXTT3=
EXTT4=
EXTT5=
EXTT6=
EXTT7=
EXTT8=
EXTT9=
EXTT10=
EXTT11=
PLAYORDER=
